<?xml version="1.0" encoding="UTF-8" standalone="no"?>
<!DOCTYPE svg PUBLIC "-//W3C//DTD SVG 1.1//EN"
 "http://www.w3.org/Graphics/SVG/1.1/DTD/svg11.dtd">
<!-- Generated by graphviz version 2.42.4 (0)
 -->
<!-- Title: G Pages: 1 -->
<svg width="1674pt" height="86pt"
 viewBox="0.00 0.00 1674.40 86.40" xmlns="http://www.w3.org/2000/svg" xmlns:xlink="http://www.w3.org/1999/xlink">
<g id="graph0" class="graph" transform="scale(1 1) rotate(0) translate(25.2 61.2)">
<title>G</title>
<!-- ARRIVED_AT_PORT -->
<g id="node1" class="node">
<title>ARRIVED_AT_PORT</title>
<path fill="#f5f6fc" stroke="#4b5d8a" stroke-width="1.45" d="M1014,-36C1014,-36 925,-36 925,-36 919,-36 913,-30 913,-24 913,-24 913,-12 913,-12 913,-6 919,0 925,0 925,0 1014,0 1014,0 1020,0 1026,-6 1026,-12 1026,-12 1026,-24 1026,-24 1026,-30 1020,-36 1014,-36"/>
<text text-anchor="middle" x="969.5" y="-15.5" font-family="Arial" font-size="10.00" fill="#253150">ARRIVED AT PORT</text>
</g>
<!-- CUSTOMS_PENDING -->
<g id="node4" class="node">
<title>CUSTOMS_PENDING</title>
<path fill="#f5f6fc" stroke="#4b5d8a" stroke-width="1.45" d="M1179,-36C1179,-36 1081,-36 1081,-36 1075,-36 1069,-30 1069,-24 1069,-24 1069,-12 1069,-12 1069,-6 1075,0 1081,0 1081,0 1179,0 1179,0 1185,0 1191,-6 1191,-12 1191,-12 1191,-24 1191,-24 1191,-30 1185,-36 1179,-36"/>
<text text-anchor="middle" x="1130" y="-15.5" font-family="Arial" font-size="10.00" fill="#253150">CUSTOMS PENDING</text>
</g>
<!-- ARRIVED_AT_PORT&#45;&gt;CUSTOMS_PENDING -->
<g id="edge9" class="edge">
<title>ARRIVED_AT_PORT&#45;&gt;CUSTOMS_PENDING</title>
<path fill="none" stroke="#6677a5" stroke-width="1.35" d="M1026.38,-18C1037.75,-18 1049.82,-18 1061.54,-18"/>
<polygon fill="#6677a5" stroke="#6677a5" stroke-width="1.35" points="1061.58,-20.52 1068.78,-18 1061.58,-15.48 1061.58,-20.52"/>
</g>
<!-- BOOKED -->
<g id="node2" class="node">
<title>BOOKED</title>
<path fill="#f5f6fc" stroke="#4b5d8a" stroke-width="1.45" d="M106,-36C106,-36 65,-36 65,-36 59,-36 53,-30 53,-24 53,-24 53,-12 53,-12 53,-6 59,0 65,0 65,0 106,0 106,0 112,0 118,-6 118,-12 118,-12 118,-24 118,-24 118,-30 112,-36 106,-36"/>
<text text-anchor="middle" x="85.5" y="-15.5" font-family="Arial" font-size="10.00" fill="#253150">BOOKED</text>
</g>
<!-- PICKED_UP -->
<g id="node11" class="node">
<title>PICKED_UP</title>
<path fill="#f5f6fc" stroke="#4b5d8a" stroke-width="1.45" d="M227,-36C227,-36 173,-36 173,-36 167,-36 161,-30 161,-24 161,-24 161,-12 161,-12 161,-6 167,0 173,0 173,0 227,0 227,0 233,0 239,-6 239,-12 239,-12 239,-24 239,-24 239,-30 233,-36 227,-36"/>
<text text-anchor="middle" x="200" y="-15.5" font-family="Arial" font-size="10.00" fill="#253150">PICKED UP</text>
</g>
<!-- BOOKED&#45;&gt;PICKED_UP -->
<g id="edge2" class="edge">
<title>BOOKED&#45;&gt;PICKED_UP</title>
<path fill="none" stroke="#6677a5" stroke-width="1.35" d="M118.14,-18C129.12,-18 141.65,-18 153.53,-18"/>
<polygon fill="#6677a5" stroke="#6677a5" stroke-width="1.35" points="153.61,-20.52 160.81,-18 153.61,-15.48 153.61,-20.52"/>
</g>
<!-- CANCELLED -->
<g id="node3" class="node">
<title>CANCELLED</title>
<path fill="#f5f6fc" stroke="#4b5d8a" stroke-width="1.45" d="M1612,-36C1612,-36 1553,-36 1553,-36 1547,-36 1541,-30 1541,-24 1541,-24 1541,-12 1541,-12 1541,-6 1547,0 1553,0 1553,0 1612,0 1612,0 1618,0 1624,-6 1624,-12 1624,-12 1624,-24 1624,-24 1624,-30 1618,-36 1612,-36"/>
<text text-anchor="middle" x="1582.5" y="-15.5" font-family="Arial" font-size="10.00" fill="#253150">CANCELLED</text>
</g>
<!-- DELIVERED_TO_DESTINATION -->
<g id="node6" class="node">
<title>DELIVERED_TO_DESTINATION</title>
<path fill="#f5f6fc" stroke="#4b5d8a" stroke-width="1.45" d="M1389,-36C1389,-36 1246,-36 1246,-36 1240,-36 1234,-30 1234,-24 1234,-24 1234,-12 1234,-12 1234,-6 1240,0 1246,0 1246,0 1389,0 1389,0 1395,0 1401,-6 1401,-12 1401,-12 1401,-24 1401,-24 1401,-30 1395,-36 1389,-36"/>
<text text-anchor="middle" x="1317.5" y="-15.5" font-family="Arial" font-size="10.00" fill="#253150">DELIVERED TO DESTINATION</text>
</g>
<!-- CUSTOMS_PENDING&#45;&gt;DELIVERED_TO_DESTINATION -->
<g id="edge10" class="edge">
<title>CUSTOMS_PENDING&#45;&gt;DELIVERED_TO_DESTINATION</title>
<path fill="none" stroke="#6677a5" stroke-width="1.35" d="M1191.23,-18C1202.53,-18 1214.57,-18 1226.54,-18"/>
<polygon fill="#6677a5" stroke="#6677a5" stroke-width="1.35" points="1226.79,-20.52 1233.99,-18 1226.79,-15.48 1226.79,-20.52"/>
</g>
<!-- DELAYED -->
<g id="node5" class="node">
<title>DELAYED</title>
<path fill="#f5f6fc" stroke="#4b5d8a" stroke-width="1.45" d="M734,-36C734,-36 689,-36 689,-36 683,-36 677,-30 677,-24 677,-24 677,-12 677,-12 677,-6 683,0 689,0 689,0 734,0 734,0 740,0 746,-6 746,-12 746,-12 746,-24 746,-24 746,-30 740,-36 734,-36"/>
<text text-anchor="middle" x="711.5" y="-15.5" font-family="Arial" font-size="10.00" fill="#253150">DELAYED</text>
</g>
<!-- EXCEPTION -->
<g id="node8" class="node">
<title>EXCEPTION</title>
<path fill="#f5f6fc" stroke="#4b5d8a" stroke-width="1.45" d="M858,-36C858,-36 801,-36 801,-36 795,-36 789,-30 789,-24 789,-24 789,-12 789,-12 789,-6 795,0 801,0 801,0 858,0 858,0 864,0 870,-6 870,-12 870,-12 870,-24 870,-24 870,-30 864,-36 858,-36"/>
<text text-anchor="middle" x="829.5" y="-15.5" font-family="Arial" font-size="10.00" fill="#253150">EXCEPTION</text>
</g>
<!-- DELAYED&#45;&gt;EXCEPTION -->
<g id="edge7" class="edge">
<title>DELAYED&#45;&gt;EXCEPTION</title>
<path fill="none" stroke="#6677a5" stroke-width="1.35" d="M746.05,-18C757.13,-18 769.67,-18 781.57,-18"/>
<polygon fill="#6677a5" stroke="#6677a5" stroke-width="1.35" points="781.67,-20.52 788.87,-18 781.67,-15.48 781.67,-20.52"/>
</g>
<!-- LOST -->
<g id="node10" class="node">
<title>LOST</title>
<path fill="#f5f6fc" stroke="#4b5d8a" stroke-width="1.45" d="M1486,-36C1486,-36 1456,-36 1456,-36 1450,-36 1444,-30 1444,-24 1444,-24 1444,-12 1444,-12 1444,-6 1450,0 1456,0 1456,0 1486,0 1486,0 1492,0 1498,-6 1498,-12 1498,-12 1498,-24 1498,-24 1498,-30 1492,-36 1486,-36"/>
<text text-anchor="middle" x="1471" y="-15.5" font-family="Arial" font-size="10.00" fill="#253150">LOST</text>
</g>
<!-- DELIVERED_TO_DESTINATION&#45;&gt;LOST -->
<g id="edge11" class="edge">
<title>DELIVERED_TO_DESTINATION&#45;&gt;LOST</title>
<path fill="none" stroke="#6677a5" stroke-width="1.35" d="M1401.34,-18C1413.79,-18 1425.99,-18 1436.56,-18"/>
<polygon fill="#6677a5" stroke="#6677a5" stroke-width="1.35" points="1436.76,-20.52 1443.96,-18 1436.76,-15.48 1436.76,-20.52"/>
</g>
<!-- DEPARTED -->
<g id="node7" class="node">
<title>DEPARTED</title>
<path fill="#f5f6fc" stroke="#4b5d8a" stroke-width="1.45" d="M347,-36C347,-36 294,-36 294,-36 288,-36 282,-30 282,-24 282,-24 282,-12 282,-12 282,-6 288,0 294,0 294,0 347,0 347,0 353,0 359,-6 359,-12 359,-12 359,-24 359,-24 359,-30 353,-36 347,-36"/>
<text text-anchor="middle" x="320.5" y="-15.5" font-family="Arial" font-size="10.00" fill="#253150">DEPARTED</text>
</g>
<!-- IN_TRANSIT -->
<g id="node9" class="node">
<title>IN_TRANSIT</title>
<path fill="#f5f6fc" stroke="#4b5d8a" stroke-width="1.45" d="M469,-36C469,-36 414,-36 414,-36 408,-36 402,-30 402,-24 402,-24 402,-12 402,-12 402,-6 408,0 414,0 414,0 469,0 469,0 475,0 481,-6 481,-12 481,-12 481,-24 481,-24 481,-30 475,-36 469,-36"/>
<text text-anchor="middle" x="441.5" y="-15.5" font-family="Arial" font-size="10.00" fill="#253150">IN TRANSIT</text>
</g>
<!-- DEPARTED&#45;&gt;IN_TRANSIT -->
<g id="edge4" class="edge">
<title>DEPARTED&#45;&gt;IN_TRANSIT</title>
<path fill="none" stroke="#6677a5" stroke-width="1.35" d="M359.15,-18C370.32,-18 382.69,-18 394.33,-18"/>
<polygon fill="#6677a5" stroke="#6677a5" stroke-width="1.35" points="394.66,-20.52 401.86,-18 394.66,-15.48 394.66,-20.52"/>
</g>
<!-- EXCEPTION&#45;&gt;ARRIVED_AT_PORT -->
<g id="edge8" class="edge">
<title>EXCEPTION&#45;&gt;ARRIVED_AT_PORT</title>
<path fill="none" stroke="#6677a5" stroke-width="1.35" d="M870.05,-18C881.06,-18 893.31,-18 905.32,-18"/>
<polygon fill="#6677a5" stroke="#6677a5" stroke-width="1.35" points="905.55,-20.52 912.75,-18 905.55,-15.48 905.55,-20.52"/>
</g>
<!-- TRANSSHIPMENT -->
<g id="node12" class="node">
<title>TRANSSHIPMENT</title>
<path fill="#f5f6fc" stroke="#4b5d8a" stroke-width="1.45" d="M622,-36C622,-36 536,-36 536,-36 530,-36 524,-30 524,-24 524,-24 524,-12 524,-12 524,-6 530,0 536,0 536,0 622,0 622,0 628,0 634,-6 634,-12 634,-12 634,-24 634,-24 634,-30 628,-36 622,-36"/>
<text text-anchor="middle" x="579" y="-15.5" font-family="Arial" font-size="10.00" fill="#253150">TRANSSHIPMENT</text>
</g>
<!-- IN_TRANSIT&#45;&gt;TRANSSHIPMENT -->
<g id="edge5" class="edge">
<title>IN_TRANSIT&#45;&gt;TRANSSHIPMENT</title>
<path fill="none" stroke="#6677a5" stroke-width="1.35" d="M481.33,-18C492.27,-18 504.46,-18 516.39,-18"/>
<polygon fill="#6677a5" stroke="#6677a5" stroke-width="1.35" points="516.57,-20.52 523.77,-18 516.57,-15.48 516.57,-20.52"/>
</g>
<!-- LOST&#45;&gt;CANCELLED -->
<g id="edge12" class="edge">
<title>LOST&#45;&gt;CANCELLED</title>
<path fill="none" stroke="#6677a5" stroke-width="1.35" d="M1498.23,-18C1508.81,-18 1521.37,-18 1533.48,-18"/>
<polygon fill="#6677a5" stroke="#6677a5" stroke-width="1.35" points="1533.74,-20.52 1540.94,-18 1533.74,-15.48 1533.74,-20.52"/>
</g>
<!-- PICKED_UP&#45;&gt;DEPARTED -->
<g id="edge3" class="edge">
<title>PICKED_UP&#45;&gt;DEPARTED</title>
<path fill="none" stroke="#6677a5" stroke-width="1.35" d="M239.15,-18C250.36,-18 262.73,-18 274.33,-18"/>
<polygon fill="#6677a5" stroke="#6677a5" stroke-width="1.35" points="274.63,-20.52 281.83,-18 274.63,-15.48 274.63,-20.52"/>
</g>
<!-- TRANSSHIPMENT&#45;&gt;DELAYED -->
<g id="edge6" class="edge">
<title>TRANSSHIPMENT&#45;&gt;DELAYED</title>
<path fill="none" stroke="#6677a5" stroke-width="1.35" d="M634.21,-18C645.93,-18 658.14,-18 669.27,-18"/>
<polygon fill="#6677a5" stroke="#6677a5" stroke-width="1.35" points="669.58,-20.52 676.78,-18 669.58,-15.48 669.58,-20.52"/>
</g>
<!-- __start_0 -->
<g id="node13" class="node">
<title>__start_0</title>
<ellipse fill="#30476f" stroke="#30476f" stroke-width="1.45" cx="5" cy="-18" rx="5" ry="5"/>
</g>
<!-- __start_0&#45;&gt;BOOKED -->
<g id="edge1" class="edge">
<title>__start_0&#45;&gt;BOOKED</title>
<path fill="none" stroke="#6677a5" stroke-width="1.35" d="M10.22,-18C17.05,-18 31.21,-18 45.35,-18"/>
<polygon fill="#6677a5" stroke="#6677a5" stroke-width="1.35" points="45.5,-20.52 52.7,-18 45.5,-15.48 45.5,-20.52"/>
</g>
</g>
</svg>
