<?xml version="1.0" encoding="UTF-8" standalone="no"?>
<!DOCTYPE svg PUBLIC "-//W3C//DTD SVG 1.1//EN"
 "http://www.w3.org/Graphics/SVG/1.1/DTD/svg11.dtd">
<!-- Generated by graphviz version 2.42.4 (0)
 -->
<!-- Title: G Pages: 1 -->
<svg width="782pt" height="376pt"
 viewBox="0.00 0.00 782.00 376.00" xmlns="http://www.w3.org/2000/svg" xmlns:xlink="http://www.w3.org/1999/xlink">
<g id="graph0" class="graph" transform="scale(1 1) rotate(0) translate(18 358)">
<title>G</title>
<!-- Experience -->
<g id="node1" class="node">
<title>Experience</title>
<path fill="#eef4fb" stroke="#244b74" d="M359,-264C359,-264 12,-264 12,-264 6,-264 0,-258 0,-252 0,-252 0,-240 0,-240 0,-234 6,-228 12,-228 12,-228 359,-228 359,-228 365,-228 371,-234 371,-240 371,-240 371,-252 371,-252 371,-258 365,-264 359,-264"/>
<text text-anchor="middle" x="185.5" y="-249" font-family="DejaVu Sans" font-size="10.00">Experience Plane</text>
<text text-anchor="middle" x="185.5" y="-238" font-family="DejaVu Sans" font-size="10.00">Customer | Partner | Provider | Operator | Warehouse | Admin | Developer</text>
</g>
<!-- Domains -->
<g id="node2" class="node">
<title>Domains</title>
<path fill="#eef4fb" stroke="#244b74" d="M410,-188C410,-188 139,-188 139,-188 133,-188 127,-182 127,-176 127,-176 127,-164 127,-164 127,-158 133,-152 139,-152 139,-152 410,-152 410,-152 416,-152 422,-158 422,-164 422,-164 422,-176 422,-176 422,-182 416,-188 410,-188"/>
<text text-anchor="middle" x="274.5" y="-173" font-family="DejaVu Sans" font-size="10.00">Business Domain Plane</text>
<text text-anchor="middle" x="274.5" y="-162" font-family="DejaVu Sans" font-size="10.00">Commerce | Trade | Supply Chain | Finance | Engagement</text>
</g>
<!-- Experience&#45;&gt;Domains -->
<g id="edge1" class="edge">
<title>Experience&#45;&gt;Domains</title>
<path fill="none" stroke="#496b8c" d="M206.14,-227.84C218.72,-217.38 234.92,-203.91 248.38,-192.71"/>
<polygon fill="#496b8c" stroke="#496b8c" points="250.15,-194.43 253.97,-188.07 247.02,-190.66 250.15,-194.43"/>
</g>
<!-- Integration -->
<g id="node3" class="node">
<title>Integration</title>
<path fill="#eef4fb" stroke="#244b74" d="M599.5,-112C599.5,-112 321.5,-112 321.5,-112 315.5,-112 309.5,-106 309.5,-100 309.5,-100 309.5,-88 309.5,-88 309.5,-82 315.5,-76 321.5,-76 321.5,-76 599.5,-76 599.5,-76 605.5,-76 611.5,-82 611.5,-88 611.5,-88 611.5,-100 611.5,-100 611.5,-106 605.5,-112 599.5,-112"/>
<text text-anchor="middle" x="460.5" y="-97" font-family="DejaVu Sans" font-size="10.00">Integration Plane</text>
<text text-anchor="middle" x="460.5" y="-86" font-family="DejaVu Sans" font-size="10.00">API Gateway | Event Bus | Workflow | Adapters | MCP Tools</text>
</g>
<!-- Domains&#45;&gt;Integration -->
<g id="edge2" class="edge">
<title>Domains&#45;&gt;Integration</title>
<path fill="none" stroke="#496b8c" d="M317.64,-151.84C345.46,-140.77 381.73,-126.34 410.76,-114.79"/>
<polygon fill="#496b8c" stroke="#496b8c" points="412,-116.93 417.59,-112.07 410.18,-112.38 412,-116.93"/>
</g>
<!-- External -->
<g id="node6" class="node">
<title>External</title>
<path fill="#fff3db" stroke="#9a6b1f" d="M574,-36C574,-36 347,-36 347,-36 341,-36 335,-30 335,-24 335,-24 335,-12 335,-12 335,-6 341,0 347,0 347,0 574,0 574,0 580,0 586,-6 586,-12 586,-12 586,-24 586,-24 586,-30 580,-36 574,-36"/>
<text text-anchor="middle" x="460.5" y="-21" font-family="DejaVu Sans" font-size="10.00">External Authorities and Providers</text>
<text text-anchor="middle" x="460.5" y="-10" font-family="DejaVu Sans" font-size="10.00">Banks | Customs | Carriers | Labs | Marketplaces</text>
</g>
<!-- Integration&#45;&gt;External -->
<g id="edge8" class="edge">
<title>Integration&#45;&gt;External</title>
<path fill="none" stroke="#496b8c" d="M460.5,-68.75C460.5,-60.57 460.5,-51.44 460.5,-43.26"/>
<polygon fill="#496b8c" stroke="#496b8c" points="458.05,-68.84 460.5,-75.84 462.95,-68.84 458.05,-68.84"/>
<polygon fill="#496b8c" stroke="#496b8c" points="462.95,-43.07 460.5,-36.07 458.05,-43.07 462.95,-43.07"/>
</g>
<!-- Intelligence -->
<g id="node4" class="node">
<title>Intelligence</title>
<path fill="#eef4fb" stroke="#244b74" d="M734,-188C734,-188 511,-188 511,-188 505,-188 499,-182 499,-176 499,-176 499,-164 499,-164 499,-158 505,-152 511,-152 511,-152 734,-152 734,-152 740,-152 746,-158 746,-164 746,-164 746,-176 746,-176 746,-182 740,-188 734,-188"/>
<text text-anchor="middle" x="622.5" y="-173" font-family="DejaVu Sans" font-size="10.00">Intelligence Plane</text>
<text text-anchor="middle" x="622.5" y="-162" font-family="DejaVu Sans" font-size="10.00">AI Gateway | RAG | Agents | Evaluation | Safety</text>
</g>
<!-- Intelligence&#45;&gt;Integration -->
<g id="edge3" class="edge">
<title>Intelligence&#45;&gt;Integration</title>
<path fill="none" stroke="#496b8c" d="M578.32,-148.82C555.38,-138.34 527.42,-125.57 504.5,-115.1"/>
<polygon fill="#496b8c" stroke="#496b8c" points="577.54,-151.16 584.93,-151.84 579.58,-146.7 577.54,-151.16"/>
<polygon fill="#496b8c" stroke="#496b8c" points="505.25,-112.75 497.87,-112.07 503.22,-117.21 505.25,-112.75"/>
</g>
<!-- Platform -->
<g id="node5" class="node">
<title>Platform</title>
<path fill="#eef4fb" stroke="#244b74" d="M597.5,-340C597.5,-340 271.5,-340 271.5,-340 265.5,-340 259.5,-334 259.5,-328 259.5,-328 259.5,-316 259.5,-316 259.5,-310 265.5,-304 271.5,-304 271.5,-304 597.5,-304 597.5,-304 603.5,-304 609.5,-310 609.5,-316 609.5,-316 609.5,-328 609.5,-328 609.5,-334 603.5,-340 597.5,-340"/>
<text text-anchor="middle" x="434.5" y="-325" font-family="DejaVu Sans" font-size="10.00">Platform Plane</text>
<text text-anchor="middle" x="434.5" y="-314" font-family="DejaVu Sans" font-size="10.00">Identity | Data | Security | Observability | Cloud | Developer Platform</text>
</g>
<!-- Platform&#45;&gt;Experience -->
<g id="edge4" class="edge">
<title>Platform&#45;&gt;Experience</title>
<path fill="none" stroke="#496b8c" d="M370.35,-301.94C333.34,-290.94 286.94,-277.15 249.89,-266.13"/>
<polygon fill="#496b8c" stroke="#496b8c" points="369.65,-304.28 377.06,-303.93 371.05,-299.59 369.65,-304.28"/>
<polygon fill="#496b8c" stroke="#496b8c" points="250.49,-263.76 243.08,-264.11 249.09,-268.45 250.49,-263.76"/>
</g>
<!-- Platform&#45;&gt;Domains -->
<g id="edge5" class="edge">
<title>Platform&#45;&gt;Domains</title>
<path fill="none" stroke="#496b8c" d="M426.1,-297.42C417.86,-276.99 403.58,-247.69 383.5,-228 367.68,-212.49 346.77,-200.18 327.5,-191.04"/>
<polygon fill="#496b8c" stroke="#496b8c" points="423.84,-298.36 428.67,-303.99 428.4,-296.57 423.84,-298.36"/>
<polygon fill="#496b8c" stroke="#496b8c" points="328.43,-188.77 321.04,-188.06 326.37,-193.21 328.43,-188.77"/>
</g>
<!-- Platform&#45;&gt;Integration -->
<g id="edge6" class="edge">
<title>Platform&#45;&gt;Integration</title>
<path fill="none" stroke="#496b8c" d="M437.32,-296.44C442.34,-252.84 452.74,-162.43 457.72,-119.13"/>
<polygon fill="#496b8c" stroke="#496b8c" points="434.86,-296.41 436.5,-303.64 439.73,-296.97 434.86,-296.41"/>
<polygon fill="#496b8c" stroke="#496b8c" points="460.17,-119.34 458.53,-112.11 455.3,-118.78 460.17,-119.34"/>
</g>
<!-- Platform&#45;&gt;Intelligence -->
<g id="edge7" class="edge">
<title>Platform&#45;&gt;Intelligence</title>
<path fill="none" stroke="#496b8c" d="M461.86,-299.17C497.56,-270.69 559.65,-221.15 595.28,-192.72"/>
<polygon fill="#496b8c" stroke="#496b8c" points="460.01,-297.51 456.07,-303.79 463.07,-301.34 460.01,-297.51"/>
<polygon fill="#496b8c" stroke="#496b8c" points="597.24,-194.29 601.19,-188.01 594.19,-190.46 597.24,-194.29"/>
</g>
</g>
</svg>
