<?xml version="1.0" encoding="UTF-8" standalone="no"?>
<!DOCTYPE svg PUBLIC "-//W3C//DTD SVG 1.1//EN"
 "http://www.w3.org/Graphics/SVG/1.1/DTD/svg11.dtd">
<!-- Generated by graphviz version 2.42.4 (0)
 -->
<!-- Title: G Pages: 1 -->
<svg width="1390pt" height="86pt"
 viewBox="0.00 0.00 1390.40 86.40" xmlns="http://www.w3.org/2000/svg" xmlns:xlink="http://www.w3.org/1999/xlink">
<g id="graph0" class="graph" transform="scale(1 1) rotate(0) translate(25.2 61.2)">
<title>G</title>
<!-- BLOCKED -->
<g id="node1" class="node">
<title>BLOCKED</title>
<path fill="#f5f6fc" stroke="#4b5d8a" stroke-width="1.45" d="M494,-36C494,-36 447,-36 447,-36 441,-36 435,-30 435,-24 435,-24 435,-12 435,-12 435,-6 441,0 447,0 447,0 494,0 494,0 500,0 506,-6 506,-12 506,-12 506,-24 506,-24 506,-30 500,-36 494,-36"/>
<text text-anchor="middle" x="470.5" y="-15.5" font-family="Arial" font-size="10.00" fill="#253150">BLOCKED</text>
</g>
<!-- DELAYED -->
<g id="node5" class="node">
<title>DELAYED</title>
<path fill="#f5f6fc" stroke="#4b5d8a" stroke-width="1.45" d="M606,-36C606,-36 561,-36 561,-36 555,-36 549,-30 549,-24 549,-24 549,-12 549,-12 549,-6 555,0 561,0 561,0 606,0 606,0 612,0 618,-6 618,-12 618,-12 618,-24 618,-24 618,-30 612,-36 606,-36"/>
<text text-anchor="middle" x="583.5" y="-15.5" font-family="Arial" font-size="10.00" fill="#253150">DELAYED</text>
</g>
<!-- BLOCKED&#45;&gt;DELAYED -->
<g id="edge5" class="edge">
<title>BLOCKED&#45;&gt;DELAYED</title>
<path fill="none" stroke="#6677a5" stroke-width="1.35" d="M506.01,-18C517.18,-18 529.69,-18 541.29,-18"/>
<polygon fill="#6677a5" stroke="#6677a5" stroke-width="1.35" points="541.57,-20.52 548.77,-18 541.57,-15.48 541.57,-20.52"/>
</g>
<!-- CANCELLED -->
<g id="node2" class="node">
<title>CANCELLED</title>
<path fill="#f5f6fc" stroke="#4b5d8a" stroke-width="1.45" d="M1221,-36C1221,-36 1162,-36 1162,-36 1156,-36 1150,-30 1150,-24 1150,-24 1150,-12 1150,-12 1150,-6 1156,0 1162,0 1162,0 1221,0 1221,0 1227,0 1233,-6 1233,-12 1233,-12 1233,-24 1233,-24 1233,-30 1227,-36 1221,-36"/>
<text text-anchor="middle" x="1191.5" y="-15.5" font-family="Arial" font-size="10.00" fill="#253150">CANCELLED</text>
</g>
<!-- CLOSED -->
<g id="node3" class="node">
<title>CLOSED</title>
<path fill="#f5f6fc" stroke="#4b5d8a" stroke-width="1.45" d="M1328,-36C1328,-36 1288,-36 1288,-36 1282,-36 1276,-30 1276,-24 1276,-24 1276,-12 1276,-12 1276,-6 1282,0 1288,0 1288,0 1328,0 1328,0 1334,0 1340,-6 1340,-12 1340,-12 1340,-24 1340,-24 1340,-30 1334,-36 1328,-36"/>
<text text-anchor="middle" x="1308" y="-15.5" font-family="Arial" font-size="10.00" fill="#253150">CLOSED</text>
</g>
<!-- CANCELLED&#45;&gt;CLOSED -->
<g id="edge10" class="edge">
<title>CANCELLED&#45;&gt;CLOSED</title>
<path fill="none" stroke="#6677a5" stroke-width="1.35" d="M1233.19,-18C1244.69,-18 1257.15,-18 1268.52,-18"/>
<polygon fill="#6677a5" stroke="#6677a5" stroke-width="1.35" points="1268.6,-20.52 1275.8,-18 1268.6,-15.48 1268.6,-20.52"/>
</g>
<!-- COMPLETED_PENDING_QC -->
<g id="node4" class="node">
<title>COMPLETED_PENDING_QC</title>
<path fill="#f5f6fc" stroke="#4b5d8a" stroke-width="1.45" d="M984,-36C984,-36 856,-36 856,-36 850,-36 844,-30 844,-24 844,-24 844,-12 844,-12 844,-6 850,0 856,0 856,0 984,0 984,0 990,0 996,-6 996,-12 996,-12 996,-24 996,-24 996,-30 990,-36 984,-36"/>
<text text-anchor="middle" x="920" y="-15.5" font-family="Arial" font-size="10.00" fill="#253150">COMPLETED PENDING QC</text>
</g>
<!-- REWORK -->
<g id="node9" class="node">
<title>REWORK</title>
<path fill="#f5f6fc" stroke="#4b5d8a" stroke-width="1.45" d="M1095,-36C1095,-36 1051,-36 1051,-36 1045,-36 1039,-30 1039,-24 1039,-24 1039,-12 1039,-12 1039,-6 1045,0 1051,0 1051,0 1095,0 1095,0 1101,0 1107,-6 1107,-12 1107,-12 1107,-24 1107,-24 1107,-30 1101,-36 1095,-36"/>
<text text-anchor="middle" x="1073" y="-15.5" font-family="Arial" font-size="10.00" fill="#253150">REWORK</text>
</g>
<!-- COMPLETED_PENDING_QC&#45;&gt;REWORK -->
<g id="edge8" class="edge">
<title>COMPLETED_PENDING_QC&#45;&gt;REWORK</title>
<path fill="none" stroke="#6677a5" stroke-width="1.35" d="M996.06,-18C1008.21,-18 1020.37,-18 1031.29,-18"/>
<polygon fill="#6677a5" stroke="#6677a5" stroke-width="1.35" points="1031.44,-20.52 1038.64,-18 1031.44,-15.48 1031.44,-20.52"/>
</g>
<!-- PARTIALLY_COMPLETED -->
<g id="node8" class="node">
<title>PARTIALLY_COMPLETED</title>
<path fill="#f5f6fc" stroke="#4b5d8a" stroke-width="1.45" d="M789,-36C789,-36 673,-36 673,-36 667,-36 661,-30 661,-24 661,-24 661,-12 661,-12 661,-6 667,0 673,0 673,0 789,0 789,0 795,0 801,-6 801,-12 801,-12 801,-24 801,-24 801,-30 795,-36 789,-36"/>
<text text-anchor="middle" x="731" y="-15.5" font-family="Arial" font-size="10.00" fill="#253150">PARTIALLY COMPLETED</text>
</g>
<!-- DELAYED&#45;&gt;PARTIALLY_COMPLETED -->
<g id="edge6" class="edge">
<title>DELAYED&#45;&gt;PARTIALLY_COMPLETED</title>
<path fill="none" stroke="#6677a5" stroke-width="1.35" d="M618.25,-18C628.91,-18 641.17,-18 653.57,-18"/>
<polygon fill="#6677a5" stroke="#6677a5" stroke-width="1.35" points="653.67,-20.52 660.87,-18 653.67,-15.48 653.67,-20.52"/>
</g>
<!-- IN_PROGRESS -->
<g id="node6" class="node">
<title>IN_PROGRESS</title>
<path fill="#f5f6fc" stroke="#4b5d8a" stroke-width="1.45" d="M380,-36C380,-36 311,-36 311,-36 305,-36 299,-30 299,-24 299,-24 299,-12 299,-12 299,-6 305,0 311,0 311,0 380,0 380,0 386,0 392,-6 392,-12 392,-12 392,-24 392,-24 392,-30 386,-36 380,-36"/>
<text text-anchor="middle" x="345.5" y="-15.5" font-family="Arial" font-size="10.00" fill="#253150">IN PROGRESS</text>
</g>
<!-- IN_PROGRESS&#45;&gt;BLOCKED -->
<g id="edge4" class="edge">
<title>IN_PROGRESS&#45;&gt;BLOCKED</title>
<path fill="none" stroke="#6677a5" stroke-width="1.35" d="M392.3,-18C403.84,-18 416.18,-18 427.52,-18"/>
<polygon fill="#6677a5" stroke="#6677a5" stroke-width="1.35" points="427.61,-20.52 434.81,-18 427.61,-15.48 427.61,-20.52"/>
</g>
<!-- NOT_STARTED -->
<g id="node7" class="node">
<title>NOT_STARTED</title>
<path fill="#f5f6fc" stroke="#4b5d8a" stroke-width="1.45" d="M133,-36C133,-36 65,-36 65,-36 59,-36 53,-30 53,-24 53,-24 53,-12 53,-12 53,-6 59,0 65,0 65,0 133,0 133,0 139,0 145,-6 145,-12 145,-12 145,-24 145,-24 145,-30 139,-36 133,-36"/>
<text text-anchor="middle" x="99" y="-15.5" font-family="Arial" font-size="10.00" fill="#253150">NOT STARTED</text>
</g>
<!-- STARTED -->
<g id="node10" class="node">
<title>STARTED</title>
<path fill="#f5f6fc" stroke="#4b5d8a" stroke-width="1.45" d="M244,-36C244,-36 200,-36 200,-36 194,-36 188,-30 188,-24 188,-24 188,-12 188,-12 188,-6 194,0 200,0 200,0 244,0 244,0 250,0 256,-6 256,-12 256,-12 256,-24 256,-24 256,-30 250,-36 244,-36"/>
<text text-anchor="middle" x="222" y="-15.5" font-family="Arial" font-size="10.00" fill="#253150">STARTED</text>
</g>
<!-- NOT_STARTED&#45;&gt;STARTED -->
<g id="edge2" class="edge">
<title>NOT_STARTED&#45;&gt;STARTED</title>
<path fill="none" stroke="#6677a5" stroke-width="1.35" d="M145.06,-18C156.63,-18 169.01,-18 180.35,-18"/>
<polygon fill="#6677a5" stroke="#6677a5" stroke-width="1.35" points="180.43,-20.52 187.63,-18 180.43,-15.48 180.43,-20.52"/>
</g>
<!-- PARTIALLY_COMPLETED&#45;&gt;COMPLETED_PENDING_QC -->
<g id="edge7" class="edge">
<title>PARTIALLY_COMPLETED&#45;&gt;COMPLETED_PENDING_QC</title>
<path fill="none" stroke="#6677a5" stroke-width="1.35" d="M801.1,-18C812.65,-18 824.73,-18 836.56,-18"/>
<polygon fill="#6677a5" stroke="#6677a5" stroke-width="1.35" points="836.7,-20.52 843.9,-18 836.7,-15.48 836.7,-20.52"/>
</g>
<!-- REWORK&#45;&gt;CANCELLED -->
<g id="edge9" class="edge">
<title>REWORK&#45;&gt;CANCELLED</title>
<path fill="none" stroke="#6677a5" stroke-width="1.35" d="M1107.07,-18C1118.1,-18 1130.62,-18 1142.55,-18"/>
<polygon fill="#6677a5" stroke="#6677a5" stroke-width="1.35" points="1142.68,-20.52 1149.88,-18 1142.68,-15.48 1142.68,-20.52"/>
</g>
<!-- STARTED&#45;&gt;IN_PROGRESS -->
<g id="edge3" class="edge">
<title>STARTED&#45;&gt;IN_PROGRESS</title>
<path fill="none" stroke="#6677a5" stroke-width="1.35" d="M256.2,-18C267.02,-18 279.33,-18 291.24,-18"/>
<polygon fill="#6677a5" stroke="#6677a5" stroke-width="1.35" points="291.39,-20.52 298.59,-18 291.39,-15.48 291.39,-20.52"/>
</g>
<!-- __start_0 -->
<g id="node11" class="node">
<title>__start_0</title>
<ellipse fill="#30476f" stroke="#30476f" stroke-width="1.45" cx="5" cy="-18" rx="5" ry="5"/>
</g>
<!-- __start_0&#45;&gt;NOT_STARTED -->
<g id="edge1" class="edge">
<title>__start_0&#45;&gt;NOT_STARTED</title>
<path fill="none" stroke="#6677a5" stroke-width="1.35" d="M10.19,-18C16.9,-18 30.8,-18 45.6,-18"/>
<polygon fill="#6677a5" stroke="#6677a5" stroke-width="1.35" points="45.71,-20.52 52.91,-18 45.71,-15.48 45.71,-20.52"/>
</g>
</g>
</svg>
