<?xml version="1.0" encoding="UTF-8" standalone="no"?>
<!DOCTYPE svg PUBLIC "-//W3C//DTD SVG 1.1//EN"
 "http://www.w3.org/Graphics/SVG/1.1/DTD/svg11.dtd">
<!-- Generated by graphviz version 2.42.4 (0)
 -->
<!-- Title: G Pages: 1 -->
<svg width="1420pt" height="86pt"
 viewBox="0.00 0.00 1420.40 86.40" xmlns="http://www.w3.org/2000/svg" xmlns:xlink="http://www.w3.org/1999/xlink">
<g id="graph0" class="graph" transform="scale(1 1) rotate(0) translate(25.2 61.2)">
<title>G</title>
<!-- APPROVED -->
<g id="node1" class="node">
<title>APPROVED</title>
<path fill="#f5f6fc" stroke="#4b5d8a" stroke-width="1.45" d="M737,-36C737,-36 682,-36 682,-36 676,-36 670,-30 670,-24 670,-24 670,-12 670,-12 670,-6 676,0 682,0 682,0 737,0 737,0 743,0 749,-6 749,-12 749,-12 749,-24 749,-24 749,-30 743,-36 737,-36"/>
<text text-anchor="middle" x="709.5" y="-15.5" font-family="Arial" font-size="10.00" fill="#253150">APPROVED</text>
</g>
<!-- PUBLISHED -->
<g id="node7" class="node">
<title>PUBLISHED</title>
<path fill="#f5f6fc" stroke="#4b5d8a" stroke-width="1.45" d="M860,-36C860,-36 804,-36 804,-36 798,-36 792,-30 792,-24 792,-24 792,-12 792,-12 792,-6 798,0 804,0 804,0 860,0 860,0 866,0 872,-6 872,-12 872,-12 872,-24 872,-24 872,-30 866,-36 860,-36"/>
<text text-anchor="middle" x="832" y="-15.5" font-family="Arial" font-size="10.00" fill="#253150">PUBLISHED</text>
</g>
<!-- APPROVED&#45;&gt;PUBLISHED -->
<g id="edge6" class="edge">
<title>APPROVED&#45;&gt;PUBLISHED</title>
<path fill="none" stroke="#6677a5" stroke-width="1.35" d="M749.29,-18C760.46,-18 772.77,-18 784.37,-18"/>
<polygon fill="#6677a5" stroke="#6677a5" stroke-width="1.35" points="784.67,-20.52 791.87,-18 784.67,-15.48 784.67,-20.52"/>
</g>
<!-- CONTENT_PENDING -->
<g id="node2" class="node">
<title>CONTENT_PENDING</title>
<path fill="#f5f6fc" stroke="#4b5d8a" stroke-width="1.45" d="M261,-36C261,-36 164,-36 164,-36 158,-36 152,-30 152,-24 152,-24 152,-12 152,-12 152,-6 158,0 164,0 164,0 261,0 261,0 267,0 273,-6 273,-12 273,-12 273,-24 273,-24 273,-30 267,-36 261,-36"/>
<text text-anchor="middle" x="212.5" y="-15.5" font-family="Arial" font-size="10.00" fill="#253150">CONTENT PENDING</text>
</g>
<!-- ELIGIBILITY_PENDING -->
<g id="node4" class="node">
<title>ELIGIBILITY_PENDING</title>
<path fill="#f5f6fc" stroke="#4b5d8a" stroke-width="1.45" d="M432,-36C432,-36 328,-36 328,-36 322,-36 316,-30 316,-24 316,-24 316,-12 316,-12 316,-6 322,0 328,0 328,0 432,0 432,0 438,0 444,-6 444,-12 444,-12 444,-24 444,-24 444,-30 438,-36 432,-36"/>
<text text-anchor="middle" x="380" y="-15.5" font-family="Arial" font-size="10.00" fill="#253150">ELIGIBILITY PENDING</text>
</g>
<!-- CONTENT_PENDING&#45;&gt;ELIGIBILITY_PENDING -->
<g id="edge3" class="edge">
<title>CONTENT_PENDING&#45;&gt;ELIGIBILITY_PENDING</title>
<path fill="none" stroke="#6677a5" stroke-width="1.35" d="M273.25,-18C284.75,-18 296.9,-18 308.7,-18"/>
<polygon fill="#6677a5" stroke="#6677a5" stroke-width="1.35" points="308.79,-20.52 315.99,-18 308.79,-15.48 308.79,-20.52"/>
</g>
<!-- DRAFT -->
<g id="node3" class="node">
<title>DRAFT</title>
<path fill="#f5f6fc" stroke="#4b5d8a" stroke-width="1.45" d="M97,-36C97,-36 65,-36 65,-36 59,-36 53,-30 53,-24 53,-24 53,-12 53,-12 53,-6 59,0 65,0 65,0 97,0 97,0 103,0 109,-6 109,-12 109,-12 109,-24 109,-24 109,-30 103,-36 97,-36"/>
<text text-anchor="middle" x="81" y="-15.5" font-family="Arial" font-size="10.00" fill="#253150">DRAFT</text>
</g>
<!-- DRAFT&#45;&gt;CONTENT_PENDING -->
<g id="edge2" class="edge">
<title>DRAFT&#45;&gt;CONTENT_PENDING</title>
<path fill="none" stroke="#6677a5" stroke-width="1.35" d="M109.15,-18C119.56,-18 131.97,-18 144.48,-18"/>
<polygon fill="#6677a5" stroke="#6677a5" stroke-width="1.35" points="144.65,-20.52 151.85,-18 144.65,-15.48 144.65,-20.52"/>
</g>
<!-- MODERATION_PENDING -->
<g id="node6" class="node">
<title>MODERATION_PENDING</title>
<path fill="#f5f6fc" stroke="#4b5d8a" stroke-width="1.45" d="M615,-36C615,-36 499,-36 499,-36 493,-36 487,-30 487,-24 487,-24 487,-12 487,-12 487,-6 493,0 499,0 499,0 615,0 615,0 621,0 627,-6 627,-12 627,-12 627,-24 627,-24 627,-30 621,-36 615,-36"/>
<text text-anchor="middle" x="557" y="-15.5" font-family="Arial" font-size="10.00" fill="#253150">MODERATION PENDING</text>
</g>
<!-- ELIGIBILITY_PENDING&#45;&gt;MODERATION_PENDING -->
<g id="edge4" class="edge">
<title>ELIGIBILITY_PENDING&#45;&gt;MODERATION_PENDING</title>
<path fill="none" stroke="#6677a5" stroke-width="1.35" d="M444.18,-18C455.69,-18 467.81,-18 479.66,-18"/>
<polygon fill="#6677a5" stroke="#6677a5" stroke-width="1.35" points="479.79,-20.52 486.99,-18 479.79,-15.48 479.79,-20.52"/>
</g>
<!-- EXPIRED -->
<g id="node5" class="node">
<title>EXPIRED</title>
<path fill="#f5f6fc" stroke="#4b5d8a" stroke-width="1.45" d="M1358,-36C1358,-36 1314,-36 1314,-36 1308,-36 1302,-30 1302,-24 1302,-24 1302,-12 1302,-12 1302,-6 1308,0 1314,0 1314,0 1358,0 1358,0 1364,0 1370,-6 1370,-12 1370,-12 1370,-24 1370,-24 1370,-30 1364,-36 1358,-36"/>
<text text-anchor="middle" x="1336" y="-15.5" font-family="Arial" font-size="10.00" fill="#253150">EXPIRED</text>
</g>
<!-- MODERATION_PENDING&#45;&gt;APPROVED -->
<g id="edge5" class="edge">
<title>MODERATION_PENDING&#45;&gt;APPROVED</title>
<path fill="none" stroke="#6677a5" stroke-width="1.35" d="M627.08,-18C639.13,-18 651.38,-18 662.61,-18"/>
<polygon fill="#6677a5" stroke="#6677a5" stroke-width="1.35" points="662.62,-20.52 669.82,-18 662.62,-15.48 662.62,-20.52"/>
</g>
<!-- SUSPENDED -->
<g id="node9" class="node">
<title>SUSPENDED</title>
<path fill="#f5f6fc" stroke="#4b5d8a" stroke-width="1.45" d="M989,-36C989,-36 927,-36 927,-36 921,-36 915,-30 915,-24 915,-24 915,-12 915,-12 915,-6 921,0 927,0 927,0 989,0 989,0 995,0 1001,-6 1001,-12 1001,-12 1001,-24 1001,-24 1001,-30 995,-36 989,-36"/>
<text text-anchor="middle" x="958" y="-15.5" font-family="Arial" font-size="10.00" fill="#253150">SUSPENDED</text>
</g>
<!-- PUBLISHED&#45;&gt;SUSPENDED -->
<g id="edge7" class="edge">
<title>PUBLISHED&#45;&gt;SUSPENDED</title>
<path fill="none" stroke="#6677a5" stroke-width="1.35" d="M872.23,-18C883.29,-18 895.47,-18 907.07,-18"/>
<polygon fill="#6677a5" stroke="#6677a5" stroke-width="1.35" points="907.39,-20.52 914.59,-18 907.39,-15.48 907.39,-20.52"/>
</g>
<!-- REJECTED -->
<g id="node8" class="node">
<title>REJECTED</title>
<path fill="#f5f6fc" stroke="#4b5d8a" stroke-width="1.45" d="M1247,-36C1247,-36 1194,-36 1194,-36 1188,-36 1182,-30 1182,-24 1182,-24 1182,-12 1182,-12 1182,-6 1188,0 1194,0 1194,0 1247,0 1247,0 1253,0 1259,-6 1259,-12 1259,-12 1259,-24 1259,-24 1259,-30 1253,-36 1247,-36"/>
<text text-anchor="middle" x="1220.5" y="-15.5" font-family="Arial" font-size="10.00" fill="#253150">REJECTED</text>
</g>
<!-- REJECTED&#45;&gt;EXPIRED -->
<g id="edge10" class="edge">
<title>REJECTED&#45;&gt;EXPIRED</title>
<path fill="none" stroke="#6677a5" stroke-width="1.35" d="M1259.29,-18C1270.61,-18 1283.07,-18 1294.56,-18"/>
<polygon fill="#6677a5" stroke="#6677a5" stroke-width="1.35" points="1294.74,-20.52 1301.94,-18 1294.74,-15.48 1294.74,-20.52"/>
</g>
<!-- UNPUBLISHED -->
<g id="node10" class="node">
<title>UNPUBLISHED</title>
<path fill="#f5f6fc" stroke="#4b5d8a" stroke-width="1.45" d="M1127,-36C1127,-36 1056,-36 1056,-36 1050,-36 1044,-30 1044,-24 1044,-24 1044,-12 1044,-12 1044,-6 1050,0 1056,0 1056,0 1127,0 1127,0 1133,0 1139,-6 1139,-12 1139,-12 1139,-24 1139,-24 1139,-30 1133,-36 1127,-36"/>
<text text-anchor="middle" x="1091.5" y="-15.5" font-family="Arial" font-size="10.00" fill="#253150">UNPUBLISHED</text>
</g>
<!-- SUSPENDED&#45;&gt;UNPUBLISHED -->
<g id="edge8" class="edge">
<title>SUSPENDED&#45;&gt;UNPUBLISHED</title>
<path fill="none" stroke="#6677a5" stroke-width="1.35" d="M1001.33,-18C1012.52,-18 1024.76,-18 1036.48,-18"/>
<polygon fill="#6677a5" stroke="#6677a5" stroke-width="1.35" points="1036.49,-20.52 1043.69,-18 1036.49,-15.48 1036.49,-20.52"/>
</g>
<!-- UNPUBLISHED&#45;&gt;REJECTED -->
<g id="edge9" class="edge">
<title>UNPUBLISHED&#45;&gt;REJECTED</title>
<path fill="none" stroke="#6677a5" stroke-width="1.35" d="M1139.07,-18C1150.57,-18 1162.86,-18 1174.3,-18"/>
<polygon fill="#6677a5" stroke="#6677a5" stroke-width="1.35" points="1174.47,-20.52 1181.67,-18 1174.47,-15.48 1174.47,-20.52"/>
</g>
<!-- __start_0 -->
<g id="node11" class="node">
<title>__start_0</title>
<ellipse fill="#30476f" stroke="#30476f" stroke-width="1.45" cx="5" cy="-18" rx="5" ry="5"/>
</g>
<!-- __start_0&#45;&gt;DRAFT -->
<g id="edge1" class="edge">
<title>__start_0&#45;&gt;DRAFT</title>
<path fill="none" stroke="#6677a5" stroke-width="1.35" d="M10.41,-18C17.39,-18 31.62,-18 45.41,-18"/>
<polygon fill="#6677a5" stroke="#6677a5" stroke-width="1.35" points="45.77,-20.52 52.97,-18 45.77,-15.48 45.77,-20.52"/>
</g>
</g>
</svg>
